<svg xmlns="http://www.w3.org/2000/svg" xmlns:xlink="http://www.w3.org/1999/xlink" width="500" zoomAndPan="magnify" viewBox="0 0 375 374.999991" height="500" preserveAspectRatio="xMidYMid meet" version="1.0"><defs><g/><clipPath id="6c00f8f658"><path d="M 37.5 112.5 L 161.25 112.5 L 161.25 262.5 L 37.5 262.5 Z M 37.5 112.5 " clip-rule="nonzero"/></clipPath></defs><rect x="-37.5" width="450" fill="#ffffff" y="-37.499999" height="449.999989" fill-opacity="1"/><rect x="-37.5" width="450" fill="#ffffff" y="-37.499999" height="449.999989" fill-opacity="1"/><g clip-path="url(#6c00f8f658)"><path fill="#1c4177" d="M 155.410156 157.085938 L 128.992188 141.667969 L 102.5 126.363281 L 76.046875 141.667969 L 49.628906 156.898438 L 49.628906 218.050781 L 76.046875 233.316406 L 102.5 248.621094 L 128.992188 233.316406 L 155.222656 218.160156 L 161.230469 228.59375 L 134.964844 243.75 L 105.523438 260.753906 L 102.5 262.492188 L 99.515625 260.753906 L 70.035156 243.75 L 40.59375 226.742188 L 37.535156 224.964844 L 37.535156 150.019531 L 40.59375 148.246094 L 70.035156 131.238281 L 99.515625 114.230469 L 102.5 112.492188 L 105.523438 114.230469 L 134.964844 131.238281 L 160.851562 146.164062 L 155.410156 157.085938 " fill-opacity="1" fill-rule="nonzero"/></g><path fill="#1c4177" d="M 71.167969 187.472656 L 71.167969 169.371094 L 86.816406 160.339844 L 102.5 151.269531 L 118.183594 160.339844 L 133.832031 169.371094 L 133.832031 219.484375 L 142.863281 214.269531 L 145.925781 212.53125 L 145.925781 162.453125 L 142.863281 160.714844 L 124.191406 149.90625 L 105.523438 139.136719 L 102.5 137.398438 L 99.515625 139.136719 L 80.84375 149.90625 L 62.136719 160.714844 L 59.113281 162.453125 L 59.113281 212.53125 L 62.136719 214.269531 L 71.167969 219.484375 Z M 108.546875 164.875 L 108.546875 229.652344 L 102.5 233.128906 L 96.492188 229.652344 L 96.492188 164.875 L 102.5 161.359375 L 108.546875 164.875 " fill-opacity="1" fill-rule="nonzero"/><g fill="#1c4177" fill-opacity="1"><g transform="translate(155.917304, 184.848504)"><g><path d="M 21.65625 -17.46875 L 21.65625 0 L 17.40625 0 L 17.40625 -9.859375 L 13.34375 0 L 10.1875 0 L 6.125 -9.859375 L 6.125 0 L 1.859375 0 L 1.859375 -17.46875 L 6.75 -17.46875 L 11.765625 -5.421875 L 16.78125 -17.46875 Z M 21.65625 -17.46875 "/></g></g></g><g fill="#1c4177" fill-opacity="1"><g transform="translate(180.448446, 184.848504)"><g><path d="M 6.390625 0.171875 C 4.816406 0.171875 3.484375 -0.375 2.390625 -1.46875 C 1.296875 -2.5625 0.75 -3.828125 0.75 -5.265625 C 0.75 -6.710938 1.125 -7.929688 1.875 -8.921875 C 2.632812 -9.921875 3.566406 -10.546875 4.671875 -10.796875 C 3.898438 -11.992188 3.515625 -13.023438 3.515625 -13.890625 C 3.515625 -15.128906 3.960938 -16.191406 4.859375 -17.078125 C 5.765625 -17.972656 7.015625 -18.421875 8.609375 -18.421875 C 10.203125 -18.421875 11.457031 -18.015625 12.375 -17.203125 C 13.300781 -16.390625 13.765625 -15.4375 13.765625 -14.34375 C 13.765625 -13.738281 13.648438 -13.207031 13.421875 -12.75 L 9.390625 -12.75 C 9.566406 -13.03125 9.65625 -13.335938 9.65625 -13.671875 C 9.65625 -14.015625 9.554688 -14.285156 9.359375 -14.484375 C 9.171875 -14.679688 8.925781 -14.78125 8.625 -14.78125 C 8.332031 -14.78125 8.085938 -14.679688 7.890625 -14.484375 C 7.703125 -14.285156 7.609375 -14.023438 7.609375 -13.703125 C 7.609375 -13.378906 7.773438 -12.992188 8.109375 -12.546875 L 17.421875 0 L 12.515625 0 L 10.984375 -2.21875 C 10.484375 -1.5 9.828125 -0.921875 9.015625 -0.484375 C 8.203125 -0.046875 7.328125 0.171875 6.390625 0.171875 Z M 4.28125 -5.484375 C 4.28125 -4.898438 4.488281 -4.394531 4.90625 -3.96875 C 5.320312 -3.539062 5.820312 -3.328125 6.40625 -3.328125 C 7 -3.328125 7.503906 -3.539062 7.921875 -3.96875 C 8.347656 -4.394531 8.5625 -4.898438 8.5625 -5.484375 C 8.5625 -6.078125 8.347656 -6.578125 7.921875 -6.984375 C 7.503906 -7.398438 7 -7.609375 6.40625 -7.609375 C 5.820312 -7.609375 5.320312 -7.398438 4.90625 -6.984375 C 4.488281 -6.578125 4.28125 -6.078125 4.28125 -5.484375 Z M 4.28125 -5.484375 "/></g></g></g><g fill="#1c4177" fill-opacity="1"><g transform="translate(198.884247, 184.848504)"><g><path d="M 3.4375 -2.375 C 1.707031 -4.0625 0.84375 -6.195312 0.84375 -8.78125 C 0.84375 -11.375 1.707031 -13.507812 3.4375 -15.1875 C 5.175781 -16.875 7.300781 -17.71875 9.8125 -17.71875 C 11.75 -17.71875 13.472656 -17.203125 14.984375 -16.171875 C 16.492188 -15.148438 17.546875 -13.722656 18.140625 -11.890625 L 13.0625 -11.890625 C 12.40625 -13.171875 11.34375 -13.8125 9.875 -13.8125 C 8.414062 -13.8125 7.265625 -13.351562 6.421875 -12.4375 C 5.585938 -11.53125 5.171875 -10.3125 5.171875 -8.78125 C 5.171875 -7.257812 5.585938 -6.039062 6.421875 -5.125 C 7.265625 -4.21875 8.414062 -3.765625 9.875 -3.765625 C 11.34375 -3.765625 12.40625 -4.398438 13.0625 -5.671875 L 18.140625 -5.671875 C 17.546875 -3.847656 16.492188 -2.421875 14.984375 -1.390625 C 13.472656 -0.359375 11.75 0.15625 9.8125 0.15625 C 7.300781 0.15625 5.175781 -0.6875 3.4375 -2.375 Z M 3.4375 -2.375 "/></g></g></g><g fill="#1c4177" fill-opacity="1"><g transform="translate(218.912299, 184.848504)"><g/></g></g><g fill="#1c4177" fill-opacity="1"><g transform="translate(227.396536, 184.848504)"><g><path d="M 15.1875 -12.125 C 15.1875 -10.945312 14.757812 -9.8125 13.90625 -8.71875 C 13.457031 -8.144531 12.789062 -7.679688 11.90625 -7.328125 C 11.019531 -6.972656 9.972656 -6.796875 8.765625 -6.796875 L 6.125 -6.796875 L 6.125 0 L 1.859375 0 L 1.859375 -17.46875 L 8.765625 -17.46875 C 10.785156 -17.46875 12.359375 -16.945312 13.484375 -15.90625 C 14.617188 -14.863281 15.1875 -13.601562 15.1875 -12.125 Z M 6.125 -10.03125 L 8.765625 -10.03125 C 9.410156 -10.03125 9.921875 -10.21875 10.296875 -10.59375 C 10.671875 -10.976562 10.859375 -11.484375 10.859375 -12.109375 C 10.859375 -12.734375 10.664062 -13.242188 10.28125 -13.640625 C 9.894531 -14.035156 9.390625 -14.234375 8.765625 -14.234375 L 6.125 -14.234375 Z M 6.125 -10.03125 "/></g></g></g><g fill="#1c4177" fill-opacity="1"><g transform="translate(244.289846, 184.848504)"><g><path d="M 12.96875 0 L 12 -2.9375 L 5.71875 -2.9375 L 4.75 0 L 0.21875 0 L 6.296875 -17.515625 L 11.46875 -17.515625 L 17.515625 0 Z M 6.796875 -6.171875 L 10.921875 -6.171875 L 8.859375 -12.390625 Z M 6.796875 -6.171875 "/></g></g></g><g fill="#1c4177" fill-opacity="1"><g transform="translate(263.04908, 184.848504)"><g><path d="M 6.125 -6.796875 L 6.125 0 L 1.859375 0 L 1.859375 -17.46875 L 8.765625 -17.46875 C 10.785156 -17.46875 12.359375 -16.945312 13.484375 -15.90625 C 14.617188 -14.863281 15.1875 -13.601562 15.1875 -12.125 C 15.1875 -11.113281 14.878906 -10.125 14.265625 -9.15625 C 13.648438 -8.195312 12.644531 -7.519531 11.25 -7.125 L 15.53125 0 L 10.546875 0 L 6.625 -6.796875 Z M 6.125 -14.234375 L 6.125 -10.03125 L 8.765625 -10.03125 C 9.410156 -10.03125 9.921875 -10.21875 10.296875 -10.59375 C 10.671875 -10.976562 10.859375 -11.484375 10.859375 -12.109375 C 10.859375 -12.734375 10.664062 -13.242188 10.28125 -13.640625 C 9.894531 -14.035156 9.390625 -14.234375 8.765625 -14.234375 Z M 6.125 -14.234375 "/></g></g></g><g fill="#1c4177" fill-opacity="1"><g transform="translate(280.688761, 184.848504)"><g><path d="M 0.671875 -14.234375 L 0.671875 -17.46875 L 14.46875 -17.46875 L 14.46875 -14.234375 L 9.6875 -14.234375 L 9.6875 0 L 5.421875 0 L 5.421875 -14.234375 Z M 0.671875 -14.234375 "/></g></g></g><g fill="#1c4177" fill-opacity="1"><g transform="translate(296.83571, 184.848504)"><g><path d="M 13.234375 -17.515625 L 17.5 -17.515625 L 17.5 0 L 13.234375 0 L 6.125 -11.03125 L 6.125 0 L 1.859375 0 L 1.859375 -17.515625 L 6.125 -17.515625 L 13.234375 -6.5 Z M 13.234375 -17.515625 "/></g></g></g><g fill="#1c4177" fill-opacity="1"><g transform="translate(317.212075, 184.848504)"><g><path d="M 12.453125 -17.515625 L 12.453125 -14.28125 L 6.125 -14.28125 L 6.125 -10.53125 L 11.703125 -10.53125 L 11.703125 -7.296875 L 6.125 -7.296875 L 6.125 -3.234375 L 12.453125 -3.234375 L 12.453125 0 L 1.859375 0 L 1.859375 -17.515625 Z M 12.453125 -17.515625 "/></g></g></g><g fill="#1c4177" fill-opacity="1"><g transform="translate(332.463375, 184.848504)"><g><path d="M 6.125 -6.796875 L 6.125 0 L 1.859375 0 L 1.859375 -17.46875 L 8.765625 -17.46875 C 10.785156 -17.46875 12.359375 -16.945312 13.484375 -15.90625 C 14.617188 -14.863281 15.1875 -13.601562 15.1875 -12.125 C 15.1875 -11.113281 14.878906 -10.125 14.265625 -9.15625 C 13.648438 -8.195312 12.644531 -7.519531 11.25 -7.125 L 15.53125 0 L 10.546875 0 L 6.625 -6.796875 Z M 6.125 -14.234375 L 6.125 -10.03125 L 8.765625 -10.03125 C 9.410156 -10.03125 9.921875 -10.21875 10.296875 -10.59375 C 10.671875 -10.976562 10.859375 -11.484375 10.859375 -12.109375 C 10.859375 -12.734375 10.664062 -13.242188 10.28125 -13.640625 C 9.894531 -14.035156 9.390625 -14.234375 8.765625 -14.234375 Z M 6.125 -14.234375 "/></g></g></g><g fill="#1c4177" fill-opacity="1"><g transform="translate(350.103067, 184.848504)"><g><path d="M 7.796875 -14.359375 C 7.265625 -14.359375 6.828125 -14.21875 6.484375 -13.9375 C 6.140625 -13.65625 5.96875 -13.25 5.96875 -12.71875 C 5.96875 -12.1875 6.125 -11.757812 6.4375 -11.4375 C 6.757812 -11.113281 7.171875 -10.863281 7.671875 -10.6875 C 8.179688 -10.507812 8.75 -10.34375 9.375 -10.1875 C 10 -10.03125 10.613281 -9.835938 11.21875 -9.609375 C 11.832031 -9.390625 12.394531 -9.113281 12.90625 -8.78125 C 13.414062 -8.445312 13.828125 -7.976562 14.140625 -7.375 C 14.453125 -6.769531 14.609375 -6.046875 14.609375 -5.203125 C 14.609375 -3.722656 14.003906 -2.457031 12.796875 -1.40625 C 11.597656 -0.351562 10.015625 0.171875 8.046875 0.171875 C 6.085938 0.171875 4.503906 -0.296875 3.296875 -1.234375 C 2.097656 -2.179688 1.5 -3.53125 1.5 -5.28125 L 6.03125 -5.28125 C 6.144531 -3.882812 6.859375 -3.1875 8.171875 -3.1875 C 8.773438 -3.1875 9.25 -3.347656 9.59375 -3.671875 C 9.945312 -3.992188 10.125 -4.40625 10.125 -4.90625 C 10.125 -5.40625 9.96875 -5.8125 9.65625 -6.125 C 9.34375 -6.4375 8.929688 -6.679688 8.421875 -6.859375 C 7.921875 -7.046875 7.359375 -7.21875 6.734375 -7.375 C 6.109375 -7.53125 5.488281 -7.722656 4.875 -7.953125 C 4.257812 -8.191406 3.695312 -8.472656 3.1875 -8.796875 C 2.6875 -9.117188 2.28125 -9.582031 1.96875 -10.1875 C 1.65625 -10.789062 1.5 -11.507812 1.5 -12.34375 C 1.5 -13.96875 2.101562 -15.269531 3.3125 -16.25 C 4.519531 -17.226562 6.066406 -17.71875 7.953125 -17.71875 C 9.835938 -17.71875 11.359375 -17.289062 12.515625 -16.4375 C 13.679688 -15.582031 14.289062 -14.234375 14.34375 -12.390625 L 9.703125 -12.390625 C 9.640625 -13.023438 9.4375 -13.507812 9.09375 -13.84375 C 8.757812 -14.1875 8.328125 -14.359375 7.796875 -14.359375 Z M 7.796875 -14.359375 "/></g></g></g><g fill="#1c4177" fill-opacity="1"><g transform="translate(184.027339, 199.719929)"><g><path d="M 2.890625 -1.78125 L 2.890625 0 L 2 0 L 2 -1.75 L 0 -5.34375 L 0.921875 -5.34375 L 2.4375 -2.734375 L 3.9375 -5.34375 L 4.84375 -5.34375 Z M 2.890625 -1.78125 "/></g></g></g><g fill="#1c4177" fill-opacity="1"><g transform="translate(191.215669, 199.719929)"><g><path d="M 4.515625 -4.53125 L 1.59375 -4.53125 L 1.59375 -3.09375 L 4.203125 -3.09375 L 4.203125 -2.28125 L 1.59375 -2.28125 L 1.59375 -0.8125 L 4.609375 -0.8125 L 4.609375 0 L 0.703125 0 L 0.703125 -5.34375 L 4.515625 -5.34375 Z M 4.515625 -4.53125 "/></g></g></g><g fill="#1c4177" fill-opacity="1"><g transform="translate(198.548831, 199.719929)"><g><path d="M 6.34375 0 L 5.515625 0 L 5.5 -3.984375 L 3.8125 -0.5625 L 3.234375 -0.5625 L 1.546875 -3.984375 L 1.546875 0 L 0.703125 0 L 0.703125 -5.34375 L 1.765625 -5.34375 L 3.53125 -1.796875 L 5.28125 -5.34375 L 6.34375 -5.34375 Z M 6.34375 0 "/></g></g></g><g fill="#1c4177" fill-opacity="1"><g transform="translate(207.93254, 199.719929)"><g><path d="M 0.78125 -6.875 C 0.882812 -6.976562 1.007812 -7.03125 1.15625 -7.03125 C 1.300781 -7.03125 1.421875 -6.976562 1.515625 -6.875 C 1.609375 -6.78125 1.65625 -6.65625 1.65625 -6.5 C 1.65625 -6.34375 1.609375 -6.210938 1.515625 -6.109375 C 1.421875 -6.015625 1.300781 -5.96875 1.15625 -5.96875 C 1.007812 -5.96875 0.882812 -6.015625 0.78125 -6.109375 C 0.6875 -6.210938 0.640625 -6.34375 0.640625 -6.5 C 0.640625 -6.65625 0.6875 -6.78125 0.78125 -6.875 Z M 1.59375 0 L 0.703125 0 L 0.703125 -5.34375 L 1.59375 -5.34375 Z M 1.59375 0 "/></g></g></g><g fill="#1c4177" fill-opacity="1"><g transform="translate(212.567213, 199.719929)"><g><path d="M 5.328125 0 L 4.453125 0 L 1.59375 -3.828125 L 1.59375 0 L 0.703125 0 L 0.703125 -5.34375 L 1.59375 -5.34375 L 4.453125 -1.5 L 4.453125 -5.34375 L 5.328125 -5.34375 Z M 5.328125 0 "/></g></g></g><g fill="#1c4177" fill-opacity="1"><g transform="translate(220.937087, 199.719929)"><g><path d="M 1.59375 -0.8125 L 3.90625 -0.8125 L 3.90625 0 L 0.703125 0 L 0.703125 -5.34375 L 1.59375 -5.34375 Z M 1.59375 -0.8125 "/></g></g></g><g fill="#1c4177" fill-opacity="1"><g transform="translate(227.340263, 199.719929)"><g><path d="M 0.78125 -6.875 C 0.882812 -6.976562 1.007812 -7.03125 1.15625 -7.03125 C 1.300781 -7.03125 1.421875 -6.976562 1.515625 -6.875 C 1.609375 -6.78125 1.65625 -6.65625 1.65625 -6.5 C 1.65625 -6.34375 1.609375 -6.210938 1.515625 -6.109375 C 1.421875 -6.015625 1.300781 -5.96875 1.15625 -5.96875 C 1.007812 -5.96875 0.882812 -6.015625 0.78125 -6.109375 C 0.6875 -6.210938 0.640625 -6.34375 0.640625 -6.5 C 0.640625 -6.65625 0.6875 -6.78125 0.78125 -6.875 Z M 1.59375 0 L 0.703125 0 L 0.703125 -5.34375 L 1.59375 -5.34375 Z M 1.59375 0 "/></g></g></g><g fill="#1c4177" fill-opacity="1"><g transform="translate(231.974934, 199.719929)"><g/></g></g><g fill="#1c4177" fill-opacity="1"><g transform="translate(236.274202, 199.719929)"><g><path d="M 6.34375 0 L 5.515625 0 L 5.5 -3.984375 L 3.8125 -0.5625 L 3.234375 -0.5625 L 1.546875 -3.984375 L 1.546875 0 L 0.703125 0 L 0.703125 -5.34375 L 1.765625 -5.34375 L 3.53125 -1.796875 L 5.28125 -5.34375 L 6.34375 -5.34375 Z M 6.34375 0 "/></g></g></g><g fill="#1c4177" fill-opacity="1"><g transform="translate(245.65791, 199.719929)"><g><path d="M 4.140625 -1.203125 L 1.453125 -1.203125 L 0.953125 0 L 0 0 L 2.359375 -5.34375 L 3.28125 -5.34375 L 5.625 0 L 4.65625 0 Z M 3.8125 -2 L 2.796875 -4.375 L 1.796875 -2 Z M 3.8125 -2 "/></g></g></g><g fill="#1c4177" fill-opacity="1"><g transform="translate(253.616144, 199.719929)"><g><path d="M 1.59375 -0.8125 L 3.90625 -0.8125 L 3.90625 0 L 0.703125 0 L 0.703125 -5.34375 L 1.59375 -5.34375 Z M 1.59375 -0.8125 "/></g></g></g><g fill="#1c4177" fill-opacity="1"><g transform="translate(260.019319, 199.719929)"><g><path d="M 0.78125 -6.875 C 0.882812 -6.976562 1.007812 -7.03125 1.15625 -7.03125 C 1.300781 -7.03125 1.421875 -6.976562 1.515625 -6.875 C 1.609375 -6.78125 1.65625 -6.65625 1.65625 -6.5 C 1.65625 -6.34375 1.609375 -6.210938 1.515625 -6.109375 C 1.421875 -6.015625 1.300781 -5.96875 1.15625 -5.96875 C 1.007812 -5.96875 0.882812 -6.015625 0.78125 -6.109375 C 0.6875 -6.210938 0.640625 -6.34375 0.640625 -6.5 C 0.640625 -6.65625 0.6875 -6.78125 0.78125 -6.875 Z M 1.59375 0 L 0.703125 0 L 0.703125 -5.34375 L 1.59375 -5.34375 Z M 1.59375 0 "/></g></g></g><g fill="#1c4177" fill-opacity="1"><g transform="translate(264.65399, 199.719929)"><g/></g></g><g fill="#1c4177" fill-opacity="1"><g transform="translate(268.953258, 199.719929)"><g><path d="M 6.34375 0 L 5.515625 0 L 5.5 -3.984375 L 3.8125 -0.5625 L 3.234375 -0.5625 L 1.546875 -3.984375 L 1.546875 0 L 0.703125 0 L 0.703125 -5.34375 L 1.765625 -5.34375 L 3.53125 -1.796875 L 5.28125 -5.34375 L 6.34375 -5.34375 Z M 6.34375 0 "/></g></g></g><g fill="#1c4177" fill-opacity="1"><g transform="translate(278.336966, 199.719929)"><g><path d="M 1.90625 -6.875 C 2 -6.96875 2.109375 -7.015625 2.234375 -7.015625 C 2.367188 -7.015625 2.476562 -6.96875 2.5625 -6.875 C 2.65625 -6.789062 2.703125 -6.675781 2.703125 -6.53125 C 2.703125 -6.394531 2.65625 -6.28125 2.5625 -6.1875 C 2.476562 -6.09375 2.367188 -6.046875 2.234375 -6.046875 C 2.109375 -6.046875 2 -6.09375 1.90625 -6.1875 C 1.820312 -6.28125 1.78125 -6.394531 1.78125 -6.53125 C 1.78125 -6.675781 1.820312 -6.789062 1.90625 -6.875 Z M 3.25 -6.875 C 3.34375 -6.96875 3.457031 -7.015625 3.59375 -7.015625 C 3.726562 -7.015625 3.835938 -6.96875 3.921875 -6.875 C 4.003906 -6.789062 4.046875 -6.675781 4.046875 -6.53125 C 4.046875 -6.394531 4.003906 -6.28125 3.921875 -6.1875 C 3.835938 -6.09375 3.726562 -6.046875 3.59375 -6.046875 C 3.457031 -6.046875 3.34375 -6.09375 3.25 -6.1875 C 3.164062 -6.28125 3.125 -6.394531 3.125 -6.53125 C 3.125 -6.675781 3.164062 -6.789062 3.25 -6.875 Z M 5.234375 -5.34375 L 5.234375 -2.21875 C 5.234375 -1.519531 5.023438 -0.96875 4.609375 -0.5625 C 4.203125 -0.164062 3.640625 0.03125 2.921875 0.03125 C 2.203125 0.03125 1.632812 -0.164062 1.21875 -0.5625 C 0.800781 -0.96875 0.59375 -1.519531 0.59375 -2.21875 L 0.59375 -5.34375 L 1.5 -5.34375 L 1.5 -2.21875 C 1.5 -1.769531 1.625 -1.414062 1.875 -1.15625 C 2.132812 -0.894531 2.484375 -0.765625 2.921875 -0.765625 C 3.359375 -0.765625 3.703125 -0.890625 3.953125 -1.140625 C 4.210938 -1.398438 4.34375 -1.757812 4.34375 -2.21875 L 4.34375 -5.34375 Z M 5.234375 -5.34375 "/></g></g></g><g fill="#1c4177" fill-opacity="1"><g transform="translate(286.493391, 199.719929)"><g><path d="M 1.75 -4.375 C 1.59375 -4.28125 1.515625 -4.144531 1.515625 -3.96875 C 1.515625 -3.789062 1.582031 -3.640625 1.71875 -3.515625 C 1.863281 -3.390625 2.039062 -3.296875 2.25 -3.234375 C 2.46875 -3.179688 2.703125 -3.109375 2.953125 -3.015625 C 3.203125 -2.929688 3.429688 -2.835938 3.640625 -2.734375 C 3.859375 -2.640625 4.035156 -2.484375 4.171875 -2.265625 C 4.316406 -2.054688 4.390625 -1.804688 4.390625 -1.515625 C 4.390625 -1.097656 4.242188 -0.753906 3.953125 -0.484375 C 3.660156 -0.222656 3.273438 -0.0625 2.796875 0 L 2.609375 0.375 C 2.773438 0.40625 2.90625 0.472656 3 0.578125 C 3.101562 0.679688 3.15625 0.816406 3.15625 0.984375 C 3.15625 1.203125 3.078125 1.375 2.921875 1.5 C 2.765625 1.632812 2.570312 1.703125 2.34375 1.703125 C 2.082031 1.703125 1.859375 1.632812 1.671875 1.5 L 1.84375 1.078125 C 1.96875 1.179688 2.113281 1.234375 2.28125 1.234375 C 2.382812 1.234375 2.46875 1.203125 2.53125 1.140625 C 2.59375 1.078125 2.625 1.003906 2.625 0.921875 C 2.625 0.835938 2.59375 0.769531 2.53125 0.71875 C 2.46875 0.664062 2.378906 0.640625 2.265625 0.640625 C 2.179688 0.640625 2.09375 0.648438 2 0.671875 L 2.265625 0.03125 C 1.472656 0 0.785156 -0.28125 0.203125 -0.8125 L 0.59375 -1.59375 C 0.851562 -1.34375 1.144531 -1.148438 1.46875 -1.015625 C 1.789062 -0.878906 2.097656 -0.8125 2.390625 -0.8125 C 2.703125 -0.8125 2.945312 -0.867188 3.125 -0.984375 C 3.300781 -1.097656 3.390625 -1.257812 3.390625 -1.46875 C 3.390625 -1.644531 3.316406 -1.796875 3.171875 -1.921875 C 3.035156 -2.046875 2.859375 -2.132812 2.640625 -2.1875 C 2.429688 -2.25 2.203125 -2.320312 1.953125 -2.40625 C 1.703125 -2.5 1.46875 -2.59375 1.25 -2.6875 C 1.039062 -2.78125 0.863281 -2.929688 0.71875 -3.140625 C 0.582031 -3.347656 0.515625 -3.597656 0.515625 -3.890625 C 0.515625 -4.335938 0.691406 -4.695312 1.046875 -4.96875 C 1.398438 -5.238281 1.867188 -5.375 2.453125 -5.375 C 3.148438 -5.375 3.773438 -5.191406 4.328125 -4.828125 L 3.953125 -4.03125 C 3.410156 -4.363281 2.890625 -4.53125 2.390625 -4.53125 C 2.117188 -4.53125 1.90625 -4.476562 1.75 -4.375 Z M 1.75 -4.375 "/></g></g></g><g fill="#1c4177" fill-opacity="1"><g transform="translate(293.567372, 199.719929)"><g><path d="M 4.140625 -1.203125 L 1.453125 -1.203125 L 0.953125 0 L 0 0 L 2.359375 -5.34375 L 3.28125 -5.34375 L 5.625 0 L 4.65625 0 Z M 3.8125 -2 L 2.796875 -4.375 L 1.796875 -2 Z M 3.8125 -2 "/></g></g></g><g fill="#1c4177" fill-opacity="1"><g transform="translate(301.525606, 199.719929)"><g><path d="M 3.078125 0 L 2.15625 0 L 0.015625 -5.34375 L 0.984375 -5.34375 L 2.640625 -1 L 4.296875 -5.34375 L 5.234375 -5.34375 Z M 3.078125 0 "/></g></g></g><g fill="#1c4177" fill-opacity="1"><g transform="translate(309.117943, 199.719929)"><g><path d="M 0.78125 -6.875 C 0.882812 -6.976562 1.007812 -7.03125 1.15625 -7.03125 C 1.300781 -7.03125 1.421875 -6.976562 1.515625 -6.875 C 1.609375 -6.78125 1.65625 -6.65625 1.65625 -6.5 C 1.65625 -6.34375 1.609375 -6.210938 1.515625 -6.109375 C 1.421875 -6.015625 1.300781 -5.96875 1.15625 -5.96875 C 1.007812 -5.96875 0.882812 -6.015625 0.78125 -6.109375 C 0.6875 -6.210938 0.640625 -6.34375 0.640625 -6.5 C 0.640625 -6.65625 0.6875 -6.78125 0.78125 -6.875 Z M 1.59375 0 L 0.703125 0 L 0.703125 -5.34375 L 1.59375 -5.34375 Z M 1.59375 0 "/></g></g></g><g fill="#1c4177" fill-opacity="1"><g transform="translate(313.752614, 199.719929)"><g><path d="M 4.09375 0 L 3.109375 -1.609375 C 3.054688 -1.609375 2.972656 -1.609375 2.859375 -1.609375 L 1.59375 -1.609375 L 1.59375 0 L 0.703125 0 L 0.703125 -5.34375 L 2.859375 -5.34375 C 3.546875 -5.34375 4.078125 -5.179688 4.453125 -4.859375 C 4.828125 -4.546875 5.015625 -4.097656 5.015625 -3.515625 C 5.015625 -3.085938 4.921875 -2.722656 4.734375 -2.421875 C 4.546875 -2.128906 4.269531 -1.914062 3.90625 -1.78125 L 5.109375 0 Z M 1.59375 -2.421875 L 2.859375 -2.421875 C 3.722656 -2.421875 4.15625 -2.78125 4.15625 -3.5 C 4.15625 -4.1875 3.722656 -4.53125 2.859375 -4.53125 L 1.59375 -4.53125 Z M 1.59375 -2.421875 "/></g></g></g><g fill="#1c4177" fill-opacity="1"><g transform="translate(321.596501, 199.719929)"><g><path d="M 1.59375 -0.8125 L 3.90625 -0.8125 L 3.90625 0 L 0.703125 0 L 0.703125 -5.34375 L 1.59375 -5.34375 Z M 1.59375 -0.8125 "/></g></g></g><g fill="#1c4177" fill-opacity="1"><g transform="translate(327.999677, 199.719929)"><g><path d="M 0.78125 -6.875 C 0.882812 -6.976562 1.007812 -7.03125 1.15625 -7.03125 C 1.300781 -7.03125 1.421875 -6.976562 1.515625 -6.875 C 1.609375 -6.78125 1.65625 -6.65625 1.65625 -6.5 C 1.65625 -6.34375 1.609375 -6.210938 1.515625 -6.109375 C 1.421875 -6.015625 1.300781 -5.96875 1.15625 -5.96875 C 1.007812 -5.96875 0.882812 -6.015625 0.78125 -6.109375 C 0.6875 -6.210938 0.640625 -6.34375 0.640625 -6.5 C 0.640625 -6.65625 0.6875 -6.78125 0.78125 -6.875 Z M 1.59375 0 L 0.703125 0 L 0.703125 -5.34375 L 1.59375 -5.34375 Z M 1.59375 0 "/></g></g></g><g fill="#1c4177" fill-opacity="1"><g transform="translate(332.634348, 199.719929)"><g><path d="M 4.265625 0 L 2.515625 -2.359375 L 1.59375 -1.359375 L 1.59375 0 L 0.703125 0 L 0.703125 -5.34375 L 1.59375 -5.34375 L 1.59375 -2.578125 L 4.140625 -5.34375 L 5.203125 -5.34375 L 3.140625 -3.0625 L 5.34375 0 Z M 4.265625 0 "/></g></g></g><g fill="#1c4177" fill-opacity="1"><g transform="translate(213.436628, 209.883653)"><g><path d="M 4.140625 -1.203125 L 1.453125 -1.203125 L 0.953125 0 L 0 0 L 2.359375 -5.34375 L 3.28125 -5.34375 L 5.625 0 L 4.65625 0 Z M 3.8125 -2 L 2.796875 -4.375 L 1.796875 -2 Z M 3.8125 -2 "/></g></g></g><g fill="#1c4177" fill-opacity="1"><g transform="translate(221.394864, 209.883653)"><g><path d="M 5.328125 0 L 4.453125 0 L 1.59375 -3.828125 L 1.59375 0 L 0.703125 0 L 0.703125 -5.34375 L 1.59375 -5.34375 L 4.453125 -1.5 L 4.453125 -5.34375 L 5.328125 -5.34375 Z M 5.328125 0 "/></g></g></g><g fill="#1c4177" fill-opacity="1"><g transform="translate(229.764737, 209.883653)"><g><path d="M 1.078125 -4.578125 C 1.617188 -5.097656 2.285156 -5.359375 3.078125 -5.359375 C 3.878906 -5.359375 4.550781 -5.097656 5.09375 -4.578125 C 5.644531 -4.066406 5.921875 -3.429688 5.921875 -2.671875 C 5.921875 -1.910156 5.644531 -1.269531 5.09375 -0.75 C 4.550781 -0.226562 3.878906 0.03125 3.078125 0.03125 C 2.285156 0.03125 1.617188 -0.226562 1.078125 -0.75 C 0.535156 -1.269531 0.265625 -1.910156 0.265625 -2.671875 C 0.265625 -3.429688 0.535156 -4.066406 1.078125 -4.578125 Z M 3.09375 -4.546875 C 2.5625 -4.546875 2.109375 -4.363281 1.734375 -4 C 1.359375 -3.644531 1.171875 -3.203125 1.171875 -2.671875 C 1.171875 -2.140625 1.359375 -1.6875 1.734375 -1.3125 C 2.117188 -0.945312 2.570312 -0.765625 3.09375 -0.765625 C 3.613281 -0.765625 4.0625 -0.945312 4.4375 -1.3125 C 4.8125 -1.6875 5 -2.140625 5 -2.671875 C 5 -3.203125 4.8125 -3.644531 4.4375 -4 C 4.0625 -4.363281 3.613281 -4.546875 3.09375 -4.546875 Z M 3.09375 -4.546875 "/></g></g></g><g fill="#1c4177" fill-opacity="1"><g transform="translate(238.271812, 209.883653)"><g><path d="M 5.328125 0 L 4.453125 0 L 1.59375 -3.828125 L 1.59375 0 L 0.703125 0 L 0.703125 -5.34375 L 1.59375 -5.34375 L 4.453125 -1.5 L 4.453125 -5.34375 L 5.328125 -5.34375 Z M 5.328125 0 "/></g></g></g><g fill="#1c4177" fill-opacity="1"><g transform="translate(246.641686, 209.883653)"><g><path d="M 0.78125 -6.875 C 0.882812 -6.976562 1.007812 -7.03125 1.15625 -7.03125 C 1.300781 -7.03125 1.421875 -6.976562 1.515625 -6.875 C 1.609375 -6.78125 1.65625 -6.65625 1.65625 -6.5 C 1.65625 -6.34375 1.609375 -6.210938 1.515625 -6.109375 C 1.421875 -6.015625 1.300781 -5.96875 1.15625 -5.96875 C 1.007812 -5.96875 0.882812 -6.015625 0.78125 -6.109375 C 0.6875 -6.210938 0.640625 -6.34375 0.640625 -6.5 C 0.640625 -6.65625 0.6875 -6.78125 0.78125 -6.875 Z M 1.59375 0 L 0.703125 0 L 0.703125 -5.34375 L 1.59375 -5.34375 Z M 1.59375 0 "/></g></g></g><g fill="#1c4177" fill-opacity="1"><g transform="translate(251.276359, 209.883653)"><g><path d="M 6.34375 0 L 5.515625 0 L 5.5 -3.984375 L 3.8125 -0.5625 L 3.234375 -0.5625 L 1.546875 -3.984375 L 1.546875 0 L 0.703125 0 L 0.703125 -5.34375 L 1.765625 -5.34375 L 3.53125 -1.796875 L 5.28125 -5.34375 L 6.34375 -5.34375 Z M 6.34375 0 "/></g></g></g><g fill="#1c4177" fill-opacity="1"><g transform="translate(260.660067, 209.883653)"><g/></g></g><g fill="#1c4177" fill-opacity="1"><g transform="translate(264.959335, 209.883653)"><g><path d="M 1.75 -4.375 C 1.59375 -4.28125 1.515625 -4.144531 1.515625 -3.96875 C 1.515625 -3.789062 1.582031 -3.640625 1.71875 -3.515625 C 1.863281 -3.390625 2.039062 -3.296875 2.25 -3.234375 C 2.46875 -3.179688 2.703125 -3.109375 2.953125 -3.015625 C 3.203125 -2.929688 3.429688 -2.835938 3.640625 -2.734375 C 3.859375 -2.640625 4.035156 -2.484375 4.171875 -2.265625 C 4.316406 -2.054688 4.390625 -1.804688 4.390625 -1.515625 C 4.390625 -1.097656 4.242188 -0.753906 3.953125 -0.484375 C 3.660156 -0.222656 3.273438 -0.0625 2.796875 0 L 2.609375 0.375 C 2.773438 0.40625 2.90625 0.472656 3 0.578125 C 3.101562 0.679688 3.15625 0.816406 3.15625 0.984375 C 3.15625 1.203125 3.078125 1.375 2.921875 1.5 C 2.765625 1.632812 2.570312 1.703125 2.34375 1.703125 C 2.082031 1.703125 1.859375 1.632812 1.671875 1.5 L 1.84375 1.078125 C 1.96875 1.179688 2.113281 1.234375 2.28125 1.234375 C 2.382812 1.234375 2.46875 1.203125 2.53125 1.140625 C 2.59375 1.078125 2.625 1.003906 2.625 0.921875 C 2.625 0.835938 2.59375 0.769531 2.53125 0.71875 C 2.46875 0.664062 2.378906 0.640625 2.265625 0.640625 C 2.179688 0.640625 2.09375 0.648438 2 0.671875 L 2.265625 0.03125 C 1.472656 0 0.785156 -0.28125 0.203125 -0.8125 L 0.59375 -1.59375 C 0.851562 -1.34375 1.144531 -1.148438 1.46875 -1.015625 C 1.789062 -0.878906 2.097656 -0.8125 2.390625 -0.8125 C 2.703125 -0.8125 2.945312 -0.867188 3.125 -0.984375 C 3.300781 -1.097656 3.390625 -1.257812 3.390625 -1.46875 C 3.390625 -1.644531 3.316406 -1.796875 3.171875 -1.921875 C 3.035156 -2.046875 2.859375 -2.132812 2.640625 -2.1875 C 2.429688 -2.25 2.203125 -2.320312 1.953125 -2.40625 C 1.703125 -2.5 1.46875 -2.59375 1.25 -2.6875 C 1.039062 -2.78125 0.863281 -2.929688 0.71875 -3.140625 C 0.582031 -3.347656 0.515625 -3.597656 0.515625 -3.890625 C 0.515625 -4.335938 0.691406 -4.695312 1.046875 -4.96875 C 1.398438 -5.238281 1.867188 -5.375 2.453125 -5.375 C 3.148438 -5.375 3.773438 -5.191406 4.328125 -4.828125 L 3.953125 -4.03125 C 3.410156 -4.363281 2.890625 -4.53125 2.390625 -4.53125 C 2.117188 -4.53125 1.90625 -4.476562 1.75 -4.375 Z M 1.75 -4.375 "/></g></g></g><g fill="#1c4177" fill-opacity="1"><g transform="translate(272.033317, 209.883653)"><g><path d="M 0.78125 -6.875 C 0.882812 -6.976562 1.007812 -7.03125 1.15625 -7.03125 C 1.300781 -7.03125 1.421875 -6.976562 1.515625 -6.875 C 1.609375 -6.78125 1.65625 -6.65625 1.65625 -6.5 C 1.65625 -6.34375 1.609375 -6.210938 1.515625 -6.109375 C 1.421875 -6.015625 1.300781 -5.96875 1.15625 -5.96875 C 1.007812 -5.96875 0.882812 -6.015625 0.78125 -6.109375 C 0.6875 -6.210938 0.640625 -6.34375 0.640625 -6.5 C 0.640625 -6.65625 0.6875 -6.78125 0.78125 -6.875 Z M 1.59375 0 L 0.703125 0 L 0.703125 -5.34375 L 1.59375 -5.34375 Z M 1.59375 0 "/></g></g></g><g fill="#1c4177" fill-opacity="1"><g transform="translate(276.667988, 209.883653)"><g><path d="M 4.09375 0 L 3.109375 -1.609375 C 3.054688 -1.609375 2.972656 -1.609375 2.859375 -1.609375 L 1.59375 -1.609375 L 1.59375 0 L 0.703125 0 L 0.703125 -5.34375 L 2.859375 -5.34375 C 3.546875 -5.34375 4.078125 -5.179688 4.453125 -4.859375 C 4.828125 -4.546875 5.015625 -4.097656 5.015625 -3.515625 C 5.015625 -3.085938 4.921875 -2.722656 4.734375 -2.421875 C 4.546875 -2.128906 4.269531 -1.914062 3.90625 -1.78125 L 5.109375 0 Z M 1.59375 -2.421875 L 2.859375 -2.421875 C 3.722656 -2.421875 4.15625 -2.78125 4.15625 -3.5 C 4.15625 -4.1875 3.722656 -4.53125 2.859375 -4.53125 L 1.59375 -4.53125 Z M 1.59375 -2.421875 "/></g></g></g><g fill="#1c4177" fill-opacity="1"><g transform="translate(284.511875, 209.883653)"><g><path d="M 4.265625 0 L 2.515625 -2.359375 L 1.59375 -1.359375 L 1.59375 0 L 0.703125 0 L 0.703125 -5.34375 L 1.59375 -5.34375 L 1.59375 -2.578125 L 4.140625 -5.34375 L 5.203125 -5.34375 L 3.140625 -3.0625 L 5.34375 0 Z M 4.265625 0 "/></g></g></g><g fill="#1c4177" fill-opacity="1"><g transform="translate(292.317649, 209.883653)"><g><path d="M 4.515625 -4.53125 L 1.59375 -4.53125 L 1.59375 -3.09375 L 4.203125 -3.09375 L 4.203125 -2.28125 L 1.59375 -2.28125 L 1.59375 -0.8125 L 4.609375 -0.8125 L 4.609375 0 L 0.703125 0 L 0.703125 -5.34375 L 4.515625 -5.34375 Z M 4.515625 -4.53125 "/></g></g></g><g fill="#1c4177" fill-opacity="1"><g transform="translate(299.650809, 209.883653)"><g><path d="M 4.34375 -4.53125 L 2.65625 -4.53125 L 2.65625 0 L 1.75 0 L 1.75 -4.53125 L 0.0625 -4.53125 L 0.0625 -5.34375 L 4.34375 -5.34375 Z M 4.34375 -4.53125 "/></g></g></g><g fill="#1c4177" fill-opacity="1"><g transform="translate(306.397006, 209.883653)"><g><path d="M 0.78125 -6.875 C 0.882812 -6.976562 1.007812 -7.03125 1.15625 -7.03125 C 1.300781 -7.03125 1.421875 -6.976562 1.515625 -6.875 C 1.609375 -6.78125 1.65625 -6.65625 1.65625 -6.5 C 1.65625 -6.34375 1.609375 -6.210938 1.515625 -6.109375 C 1.421875 -6.015625 1.300781 -5.96875 1.15625 -5.96875 C 1.007812 -5.96875 0.882812 -6.015625 0.78125 -6.109375 C 0.6875 -6.210938 0.640625 -6.34375 0.640625 -6.5 C 0.640625 -6.65625 0.6875 -6.78125 0.78125 -6.875 Z M 1.59375 0 L 0.703125 0 L 0.703125 -5.34375 L 1.59375 -5.34375 Z M 1.59375 0 "/></g></g></g></svg>